<?xml version="1.0" standalone="no"?><!DOCTYPE svg PUBLIC "-//W3C//DTD SVG 1.1//EN" "http://www.w3.org/Graphics/SVG/1.1/DTD/svg11.dtd"><svg t="1574326946487" class="icon" viewBox="0 0 1024 1024" version="1.1" xmlns="http://www.w3.org/2000/svg" p-id="13622" width="128" height="128" xmlns:xlink="http://www.w3.org/1999/xlink"><defs><style type="text/css"></style></defs><path d="M666.586 779.276c116.727-55.533 173.484-152.271 179.843-279.853-0.456-37.294-5.264-68.771-16.858-102.398-70.434-204.291-314.648-274.198-479.541-141.636-133.106 107.007-153.669 305.295-45.896 438.42 86.827 107.248 234.977 146.112 362.452 85.467z" fill="#FDC368" p-id="13623"></path><path d="M487.789 833.454c154.122 1.696 309.132-120.551 309.773-308.01 0.604-176.51-144.345-309.355-307.98-310.8-153.715-1.357-309.155 125.027-309.649 309.118-0.483 179.796 145.864 311.079 307.856 309.692zM272.527 691.23c-0.005-22.864 16.855-40.344 40.297-40.811 21.35-0.426 39.749 17.248 40.404 38.81 0.658 21.682-18.238 42.497-39.319 42.182-26.937-0.403-41.378-21.923-41.382-40.181z m491.431-238.513c0.621 12.81-10.661 23.921-24.102 23.737-12.673-0.174-22.614-9.904-23.158-22.667-0.572-13.412 9.785-24.651 22.989-24.948 13.249-0.298 23.592 9.878 24.271 23.878z m-513.99 227.278c-16.255-14.962-33.209-52.217-42.186-93.518-12.516-57.582-7.555-113.813 13.788-168.753 39.005-100.405 148.825-182.226 271.823-178.899 109.259 2.956 218.55 73.089 251.177 163.818-39.778 8.324-57.823 30.474-50.656 61.49 3.894 16.852 14.749 27.871 30.934 33.9 15.41 5.741 29.883 1.39 42.966-4.922 6.35 5.214 5.302 10.914 5.584 16.021 6.529 118.138-59.939 227.663-167.451 276.977-40.712 18.674-83.147 28.275-127.896 26.371-53.741-2.287-103.406-17.782-148.335-47.711-2.763-1.841-5.449-3.832-7.961-5.997-0.908-0.782-1.199-2.279-2.316-4.563 5.969-2.115 11.993-3.951 17.783-6.349 45.608-18.881 48.301-67.48 26.964-96.06-24.055-32.219-81.525-38.027-106.239 9.956-2.979 5.787-5.245 11.94-7.979 18.239z" fill="#4F3838" p-id="13624"></path><path d="M363.627 524.952c36.12 1.968 79.748-27.246 80.61-78.818 0.735-44.006-35.073-80.979-78.985-80.817-51.631 0.19-80.756 42.427-80.52 79.183 0.286 44.703 34.436 80.12 78.895 80.452z m0.043-135.871c30.307-0.491 56.336 24.827 56.962 55.405 0.626 30.621-24.393 56.158-55.347 56.492-31.612 0.342-56.134-23.456-56.55-54.879-0.408-30.978 24.2-56.52 54.935-57.018zM524.284 728.704c29.341-0.318 53.322-24.725 52.919-53.859-0.404-29.143-25.08-53.214-54.123-52.793-29.276 0.424-53.165 24.867-52.789 54.015 0.379 29.346 24.596 52.956 53.993 52.637z m-0.153-82.92c15.508 0.343 28.849 13.972 28.98 29.606 0.132 15.755-12.915 28.939-28.886 29.189-16.184 0.253-29.237-12.087-29.776-28.148-0.558-16.639 13.359-31.008 29.682-30.647zM531.248 408.326c13.084 0.649 24.448-9.943 24.831-23.144 0.379-13.073-10.504-24.439-23.513-24.554-12.315-0.11-22.843 9.798-23.636 22.243-0.855 13.409 9.134 24.801 22.318 25.455zM694.651 621.522c9.995-0.427 17.078-8.496 16.32-18.593-0.692-9.212-7.82-15.741-17.21-15.764-10.125-0.024-17.617 7.582-17.378 17.646 0.238 9.986 8.066 17.147 18.268 16.711z" fill="#4F3838" p-id="13625"></path></svg>